<!DOCTYPE html>
<html lang="en">
<head>
<link rel="shortcut icon" href="FYCLOGO.ico" /><body>
<body style="background-color:rgb(64, 64, 64);">
<meta charset="UTF-8">
<meta http-equiv="X-UA-Compatible" content="IE=edge">
<meta name="viewport" content="width=device-width, initial-scale=1.0">
<title>FYC/Movies/Jackass.Forever.2022.1080p.WEBRip.DD5.1.x264-NOGRP</title>
</head>
<body>

<center><h1>FYC/Movies/Jackass.Forever.2022.1080p.WEBRip.DD5.1.x264-NOGRP</h1></center>
<center><h1>This torrent has been tested and is safe and works</h1></center>
<center><h1>The best way to get banned form your ISP</h1></center>
<center><h1>============================</h1></center>

<!--Back-->
<h1>
<style> 
.button {
background-color: rgb(36, 37, 36);
border: none;
color: rgb(0, 0, 0);
padding: 40px 68px;
text-align: center;
text-decoration: none;
display: inline-block;
font-size: 40px;
margin: 4px 2px;
cursor: pointer;
}
</style>
</head>
<body>
<center><a href="Movies.html" class="button"><center>Back</center></a></center>
<center><h1>============================</h1></center>
<!--End--> 

<!--Stats-->
<center><img src="c16e7b9b2eecd7ff86ad10c60217cd97.jpg"></center>
<center><h1>Stats</h1></center>
<center><h1>Title: Jackass.Forever.2022.1080p.WEBRip.DD5.1.x264-NOGRP</h1></center>
<center><h1>Category: Movies</h1></center>
<center><h1>Type: HD</h1></center>
<center><h1>Language: English</h1></center>
<center><h1>Total size: 6.7 GB</h1></center>
<center><h1>Uploaded By: TheMorozko</h1></center>
<center><h1>============================</h1></center>
<center><h1>Info: 
<p>
!!! Remember I don't own or edit anything on links that might be on this torrent!!!
<hr>
Video
ID : 1
Format : AVC
Format/Info : Advanced Video Codec
Format profile : High@L4
Format settings : CABAC / 4 Ref Frames
Format settings, CABAC : Yes
Format settings, Reference frames : 4 frames
Codec ID : V_MPEG4/ISO/AVC
Duration : 1 h 36 min
Bit rate : 9 659 kb/s
Width : 1 916 pixels
Height : 1 076 pixels
Display aspect ratio : 16:9
Frame rate mode : Constant
Frame rate : 23.976 (24000/1001) FPS
Color space : YUV
Chroma subsampling : 4:2:0
Bit depth : 8 bits
Scan type : Progressive
Bits/(Pixel*Frame) : 0.195
Stream size : 6.48 GiB (96%)
Default : Yes
Forced : No
Color range : Limited
Color primaries : BT.709
Transfer characteristics : BT.709
Matrix coefficients : BT.709

Audio
ID : 2
Format : AC-3
Format/Info : Audio Coding 3
Commercial name : Dolby Digital
Codec ID : A_AC3
Duration : 1 h 36 min
Bit rate mode : Constant
Bit rate : 384 kb/s
Channel(s) : 6 channels
Channel layout : L R C LFE Ls Rs
Sampling rate : 48.0 kHz
Frame rate : 31.250 FPS (1536 SPF)
Compression mode : Lossy
Stream size : 264 MiB (4%)
Title : English
Language : English
Service kind : Complete Main
Default : Yes
Forced : No

Text #1
ID : 3
Format : UTF-8
Codec ID : S_TEXT/UTF8
Codec ID/Info : UTF-8 Plain Text
Duration : 1 h 33 min
Bit rate : 71 b/s
Count of elements : 1701
Stream size : 49.3 KiB (0%)
Language : English
Default : Yes
Forced : No

Text #2
ID : 4
Format : UTF-8
Codec ID : S_TEXT/UTF8
Codec ID/Info : UTF-8 Plain Text
Duration : 1 h 34 min
Bit rate : 85 b/s
Count of elements : 2007
Stream size : 59.0 KiB (0%)
Title : SDH
Language : English
Default : No
Forced : No
</p></h1></center>
<center><h1>============================</h1></center>

<!--Download-->
<h1>
<style> 
.button {
background-color: rgb(36, 37, 36);
border: none;
color: rgb(0, 0, 0);
padding: 40px 68px;
text-align: center;
text-decoration: none;
display: inline-block;
font-size: 40px;
margin: 4px 2px;
cursor: pointer;
}
</style>
</head>
<body>
<center><a href="magnet:?xt=urn:btih:CAD35C0CAD9DE00121F3D06C818ECA08AB8885A0&dn=Jackass.Forever.2022.1080p.WEBRip.DD5.1.x264-NOGRP&tr=http%3A%2F%2Ftracker.trackerfix.com%3A80%2Fannounce&tr=udp%3A%2F%2F9.rarbg.me%3A2750%2Fannounce&tr=udp%3A%2F%2F9.rarbg.to%3A2810%2Fannounce&tr=udp%3A%2F%2Ftracker.fatkhoala.org%3A13750%2Fannounce&tr=udp%3A%2F%2Ftracker.tallpenguin.org%3A15740%2Fannounce&tr=udp%3A%2F%2Ftracker.opentrackr.org%3A1337%2Fannounce&tr=http%3A%2F%2Ftracker.openbittorrent.com%3A80%2Fannounce&tr=udp%3A%2F%2Fopentracker.i2p.rocks%3A6969%2Fannounce&tr=udp%3A%2F%2Ftracker.internetwarriors.net%3A1337%2Fannounce&tr=udp%3A%2F%2Ftracker.leechers-paradise.org%3A6969%2Fannounce&tr=udp%3A%2F%2Fcoppersurfer.tk%3A6969%2Fannounce&tr=udp%3A%2F%2Ftracker.zer0day.to%3A1337%2Fannounce" class="button"><center>Downlaod</center></a></center>
<center><h1>============================</h1></center>
<!--End--> 
</body>
</html>